<?xml version="1.0" encoding="UTF-8" standalone="no"?>
<svg
   width="48"
   height="48"
   viewBox="0 0 48 48"
   version="1.1"
   id="svg2"
   sodipodi:docname="Cloud.svg"
   inkscape:version="1.3.2 (091e20e, 2023-11-25, custom)"
   xmlns:inkscape="http://www.inkscape.org/namespaces/inkscape"
   xmlns:sodipodi="http://sodipodi.sourceforge.net/DTD/sodipodi-0.dtd"
   xmlns="http://www.w3.org/2000/svg"
   xmlns:svg="http://www.w3.org/2000/svg">
  <defs
     id="defs2" />
  <sodipodi:namedview
     id="namedview2"
     pagecolor="#ffffff"
     bordercolor="#666666"
     borderopacity="1.0"
     inkscape:showpageshadow="2"
     inkscape:pageopacity="0.0"
     inkscape:pagecheckerboard="0"
     inkscape:deskcolor="#d1d1d1"
     inkscape:zoom="12.079741"
     inkscape:cx="23.965746"
     inkscape:cy="22.848172"
     inkscape:current-layer="svg2" />
  <path
     d="M0 0h48v48h-48z"
     fill="none"
     id="path1" />
  <g
     id="g7"
     transform="matrix(0.93708439,0,0,0.93708439,1.6271104,0.45575437)">
    <path
       d="m 40.808265,21.112408 c -0.999269,-5.055121 -5.459238,-8.868505 -10.808263,-8.868505 -4.24689,0 -7.928017,2.41 -9.772256,5.929482 -4.415883,0.47759 -7.861889,4.217499 -7.861889,8.76564 0,4.871432 3.945639,8.817072 8.817073,8.817072 h 19.103658 c 4.055853,0 7.347562,-3.291707 7.347562,-7.347561 0,-3.879512 -3.019848,-7.024268 -6.825885,-7.296128 z"
       id="path7"
       style="fill:none;stroke:#d5e5ff;stroke-width:1.5;stroke-dasharray:none"
       sodipodi:nodetypes="cscssssc" />
    <path
       d="M 28.808259,17.112406 C 27.80899,12.057285 23.349021,8.2439007 17.999996,8.2439007 c -4.24689,0 -7.928017,2.4100003 -9.7722563,5.9294823 -4.4158839,0.47759 -7.86189016,4.217499 -7.86189016,8.76564 0,4.871432 3.94563956,8.817072 8.81707416,8.817072 H 28.286582 c 4.055853,0 7.347562,-3.291707 7.347562,-7.347561 0,-3.879512 -3.019848,-7.024268 -6.825885,-7.296128 z"
       id="path6"
       style="fill:#fff5f5;stroke:#5599ff;stroke-width:1.99981989;stroke-dasharray:none;opacity:1;fill-opacity:0.64999998;stroke-opacity:0.85000002"
       sodipodi:nodetypes="cscssssc" />
    <path
       d="m 32.808261,27.112411 c -0.999269,-5.055121 -5.459238,-8.868505 -10.808263,-8.868505 -4.24689,0 -7.928017,2.41 -9.772256,5.929482 -4.4158836,0.47759 -7.8618899,4.217499 -7.8618899,8.76564 0,4.871432 3.9456396,8.817072 8.8170739,8.817072 h 19.103658 c 4.055853,0 7.347562,-3.291707 7.347562,-7.347561 0,-3.879512 -3.019848,-7.024268 -6.825885,-7.296128 z"
       id="path5"
       style="fill:#ffffff;fill-opacity:0.8583;stroke:#ff6600;stroke-width:2.5;stroke-dasharray:none"
       sodipodi:nodetypes="cscssssc" />
  </g>
</svg>
