<?xml version="1.0" encoding="UTF-8" standalone="no"?>
<!-- Created with Inkscape (http://www.inkscape.org/) -->

<svg
   width="36mm"
   height="36mm"
   viewBox="0 0 36 36"
   version="1.1"
   id="svg1"
   xml:space="preserve"
   sodipodi:docname="Guida_Logo.svg"
   inkscape:version="1.3.2 (091e20e, 2023-11-25, custom)"
   xmlns:inkscape="http://www.inkscape.org/namespaces/inkscape"
   xmlns:sodipodi="http://sodipodi.sourceforge.net/DTD/sodipodi-0.dtd"
   xmlns="http://www.w3.org/2000/svg"
   xmlns:svg="http://www.w3.org/2000/svg"><sodipodi:namedview
     id="namedview1"
     pagecolor="#ffffff"
     bordercolor="#666666"
     borderopacity="1.0"
     inkscape:showpageshadow="2"
     inkscape:pageopacity="0.0"
     inkscape:pagecheckerboard="0"
     inkscape:deskcolor="#d1d1d1"
     inkscape:document-units="mm"
     inkscape:zoom="5.9090278"
     inkscape:cx="68.031496"
     inkscape:cy="68.031496"
     inkscape:current-layer="svg1" /><defs
     id="defs1"><filter
       style="color-interpolation-filters:sRGB;"
       inkscape:label="Drop Shadow"
       id="filter7"
       x="-0.04584506"
       y="-0.044381694"
       width="1.1158826"
       height="1.1088418"><feFlood
         result="flood"
         in="SourceGraphic"
         flood-opacity="0.596078"
         flood-color="rgb(42,42,42)"
         id="feFlood6" /><feGaussianBlur
         result="blur"
         in="SourceGraphic"
         stdDeviation="0.300000"
         id="feGaussianBlur6" /><feOffset
         result="offset"
         in="blur"
         dx="0.700000"
         dy="0.600000"
         id="feOffset6" /><feComposite
         result="comp1"
         operator="in"
         in="flood"
         in2="offset"
         id="feComposite6" /><feComposite
         result="comp2"
         operator="over"
         in="SourceGraphic"
         in2="comp1"
         id="feComposite7" /></filter></defs><g
     id="layer1"
     style="filter:url(#filter7)"><path
       id="path15"
       style="opacity:1;fill:#fd4001;fill-opacity:1;stroke:#f9f9f9;stroke-width:1.2128;stroke-linecap:round;stroke-linejoin:round;stroke-dasharray:none"
       d="M 16.733843,3.057397 V 9.1945953 C 16.197932,9.1947541 14.903502,9.194962 14.367593,9.195088 12.636765,9.2291769 9.8815554,9.1175832 8.1608785,9.3521449 7.156254,9.5677984 6.1757033,10.081777 5.55366,10.945882 c -0.5313957,0.699775 -0.7799101,1.589397 -0.9295632,2.445715 -0.010695,6.432677 -0.021273,12.865512 -0.031851,19.298191 0.187036,0.275448 0.6449898,0.07663 0.9399317,0.152479 1.8054039,0.04507 4.6225095,0.08581 6.4284255,0.10029 0.27604,-0.214402 0.05834,-0.717557 0.127647,-1.047727 0.01864,-4.197071 -0.03886,-8.400667 0.03802,-12.593858 -0.03255,-0.727631 0.210982,-1.494066 0.814262,-1.91956 0.793925,-0.608224 2.605622,-0.402029 3.5274,-0.461754 0.08842,-0.0016 0.177319,-5.42e-4 0.265907,-0.0013 v 6.128313 l 8.395444,-4.997309 8.395197,-4.997324 -8.395197,-4.9973234 z" /></g></svg>
